# xmcd
#
# Track frame offsets:
#	150
#	19947
#	35721
#	49510
#	64296
#	81483
#	99110
#
# Disc length: 1567 seconds
#
# Revision: 0
# Processed by: cddbd v1.5.2PL0 Copyright (c) Steve Scherf et al.
# Submitted via: dBpowerAMP V4.0
#
DISCID=56061d07
DTITLE=Ronni Rae Rivers - Bridging The Gap
DYEAR=1900
DGENRE=Country
TTITLE0=Hven't things Changed
TTITLE1=Happy New Year
TTITLE2=Kickin' This Heart Around
TTITLE3=Maybe I'm Right
TTITLE4=Good Guys Finish Last
TTITLE5=You Win..You Lose
TTITLE6=Long Long Time
EXTD=David Dwyer
EXTT0=
EXTT1=
EXTT2=
EXTT3=
EXTT4=
EXTT5=
EXTT6=
PLAYORDER=
